<mxfile host="Electron" agent="Mozilla/5.0 (X11; Linux x86_64) AppleWebKit/537.36 (KHTML, like Gecko) draw.io/27.0.9 Chrome/134.0.6998.205 Electron/35.4.0 Safari/537.36" version="27.0.9">
  <diagram name="Page-1" id="UaJcK28udWeBOdXrKgVa">
    <mxGraphModel dx="786" dy="526" grid="1" gridSize="10" guides="1" tooltips="1" connect="1" arrows="1" fold="1" page="1" pageScale="1" pageWidth="1169" pageHeight="827" math="0" shadow="0">
      <root>
        <mxCell id="0" />
        <mxCell id="1" parent="0" />
        <mxCell id="zNYn_2MFzlAma4jKyTyU-6" value="" style="shape=table;startSize=0;container=1;collapsible=0;childLayout=tableLayout;fontSize=12;fontFamily=DM Mono;" parent="1" vertex="1">
          <mxGeometry x="410" y="120" width="120" height="160" as="geometry" />
        </mxCell>
        <mxCell id="zNYn_2MFzlAma4jKyTyU-7" value="" style="shape=tableRow;horizontal=0;startSize=0;swimlaneHead=0;swimlaneBody=0;strokeColor=inherit;top=0;left=0;bottom=0;right=0;collapsible=0;dropTarget=0;fillColor=none;points=[[0,0.5],[1,0.5]];portConstraint=eastwest;fontSize=12;fontFamily=DM Mono;" parent="zNYn_2MFzlAma4jKyTyU-6" vertex="1">
          <mxGeometry width="120" height="40" as="geometry" />
        </mxCell>
        <mxCell id="zNYn_2MFzlAma4jKyTyU-8" value="KEY" style="shape=partialRectangle;html=1;whiteSpace=wrap;connectable=0;strokeColor=inherit;overflow=hidden;fillColor=none;top=0;left=0;bottom=0;right=0;pointerEvents=1;fontSize=12;fontFamily=DM Mono;" parent="zNYn_2MFzlAma4jKyTyU-7" vertex="1">
          <mxGeometry width="60" height="40" as="geometry">
            <mxRectangle width="60" height="40" as="alternateBounds" />
          </mxGeometry>
        </mxCell>
        <mxCell id="zNYn_2MFzlAma4jKyTyU-9" value="VALUE" style="shape=partialRectangle;html=1;whiteSpace=wrap;connectable=0;strokeColor=inherit;overflow=hidden;fillColor=none;top=0;left=0;bottom=0;right=0;pointerEvents=1;fontSize=12;fontFamily=DM Mono;" parent="zNYn_2MFzlAma4jKyTyU-7" vertex="1">
          <mxGeometry x="60" width="60" height="40" as="geometry">
            <mxRectangle width="60" height="40" as="alternateBounds" />
          </mxGeometry>
        </mxCell>
        <mxCell id="zNYn_2MFzlAma4jKyTyU-11" value="" style="shape=tableRow;horizontal=0;startSize=0;swimlaneHead=0;swimlaneBody=0;strokeColor=inherit;top=0;left=0;bottom=0;right=0;collapsible=0;dropTarget=0;fillColor=none;points=[[0,0.5],[1,0.5]];portConstraint=eastwest;fontSize=12;fontFamily=DM Mono;" parent="zNYn_2MFzlAma4jKyTyU-6" vertex="1">
          <mxGeometry y="40" width="120" height="40" as="geometry" />
        </mxCell>
        <mxCell id="zNYn_2MFzlAma4jKyTyU-12" value="String: table1" style="shape=partialRectangle;html=1;whiteSpace=wrap;connectable=0;strokeColor=inherit;overflow=hidden;fillColor=none;top=0;left=0;bottom=0;right=0;pointerEvents=1;fontSize=12;fontFamily=DM Mono;" parent="zNYn_2MFzlAma4jKyTyU-11" vertex="1">
          <mxGeometry width="60" height="40" as="geometry">
            <mxRectangle width="60" height="40" as="alternateBounds" />
          </mxGeometry>
        </mxCell>
        <mxCell id="zNYn_2MFzlAma4jKyTyU-13" value="ArbolBp" style="shape=partialRectangle;html=1;whiteSpace=wrap;connectable=0;strokeColor=inherit;overflow=hidden;fillColor=none;top=0;left=0;bottom=0;right=0;pointerEvents=1;fontSize=12;fontFamily=DM Mono;" parent="zNYn_2MFzlAma4jKyTyU-11" vertex="1">
          <mxGeometry x="60" width="60" height="40" as="geometry">
            <mxRectangle width="60" height="40" as="alternateBounds" />
          </mxGeometry>
        </mxCell>
        <mxCell id="zNYn_2MFzlAma4jKyTyU-15" value="" style="shape=tableRow;horizontal=0;startSize=0;swimlaneHead=0;swimlaneBody=0;strokeColor=inherit;top=0;left=0;bottom=0;right=0;collapsible=0;dropTarget=0;fillColor=none;points=[[0,0.5],[1,0.5]];portConstraint=eastwest;fontSize=12;fontFamily=DM Mono;" parent="zNYn_2MFzlAma4jKyTyU-6" vertex="1">
          <mxGeometry y="80" width="120" height="40" as="geometry" />
        </mxCell>
        <mxCell id="zNYn_2MFzlAma4jKyTyU-16" value="String: table2" style="shape=partialRectangle;html=1;whiteSpace=wrap;connectable=0;strokeColor=inherit;overflow=hidden;fillColor=none;top=0;left=0;bottom=0;right=0;pointerEvents=1;fontSize=12;fontFamily=DM Mono;" parent="zNYn_2MFzlAma4jKyTyU-15" vertex="1">
          <mxGeometry width="60" height="40" as="geometry">
            <mxRectangle width="60" height="40" as="alternateBounds" />
          </mxGeometry>
        </mxCell>
        <mxCell id="zNYn_2MFzlAma4jKyTyU-17" value="ArbolBp" style="shape=partialRectangle;html=1;whiteSpace=wrap;connectable=0;strokeColor=inherit;overflow=hidden;fillColor=none;top=0;left=0;bottom=0;right=0;pointerEvents=1;fontSize=12;fontFamily=DM Mono;" parent="zNYn_2MFzlAma4jKyTyU-15" vertex="1">
          <mxGeometry x="60" width="60" height="40" as="geometry">
            <mxRectangle width="60" height="40" as="alternateBounds" />
          </mxGeometry>
        </mxCell>
        <mxCell id="zNYn_2MFzlAma4jKyTyU-52" style="shape=tableRow;horizontal=0;startSize=0;swimlaneHead=0;swimlaneBody=0;strokeColor=inherit;top=0;left=0;bottom=0;right=0;collapsible=0;dropTarget=0;fillColor=none;points=[[0,0.5],[1,0.5]];portConstraint=eastwest;fontSize=12;fontFamily=DM Mono;" parent="zNYn_2MFzlAma4jKyTyU-6" vertex="1">
          <mxGeometry y="120" width="120" height="40" as="geometry" />
        </mxCell>
        <mxCell id="zNYn_2MFzlAma4jKyTyU-53" value="..." style="shape=partialRectangle;html=1;whiteSpace=wrap;connectable=0;strokeColor=inherit;overflow=hidden;fillColor=none;top=0;left=0;bottom=0;right=0;pointerEvents=1;fontSize=12;fontFamily=DM Mono;rowspan=1;colspan=2;" parent="zNYn_2MFzlAma4jKyTyU-52" vertex="1">
          <mxGeometry width="120" height="40" as="geometry">
            <mxRectangle width="60" height="40" as="alternateBounds" />
          </mxGeometry>
        </mxCell>
        <mxCell id="zNYn_2MFzlAma4jKyTyU-54" value="..." style="shape=partialRectangle;html=1;whiteSpace=wrap;connectable=0;strokeColor=inherit;overflow=hidden;fillColor=none;top=0;left=0;bottom=0;right=0;pointerEvents=1;fontSize=12;fontFamily=DM Mono;" parent="zNYn_2MFzlAma4jKyTyU-52" vertex="1" visible="0">
          <mxGeometry x="60" width="60" height="40" as="geometry">
            <mxRectangle width="60" height="40" as="alternateBounds" />
          </mxGeometry>
        </mxCell>
        <mxCell id="sTmvytfwbgOBLTd5Th8V-1" value="" style="endArrow=none;html=1;rounded=0;entryX=0;entryY=0;entryDx=0;entryDy=0;exitX=1;exitY=0.5;exitDx=0;exitDy=0;fontFamily=DM Mono;fontSize=12;entryPerimeter=0;" parent="1" source="zNYn_2MFzlAma4jKyTyU-11" target="sTmvytfwbgOBLTd5Th8V-95" edge="1">
          <mxGeometry width="50" height="50" relative="1" as="geometry">
            <mxPoint x="490" y="260" as="sourcePoint" />
            <mxPoint x="625" y="10" as="targetPoint" />
          </mxGeometry>
        </mxCell>
        <mxCell id="sTmvytfwbgOBLTd5Th8V-2" value="" style="endArrow=none;html=1;rounded=0;entryX=0;entryY=1;entryDx=0;entryDy=0;exitX=1;exitY=0.5;exitDx=0;exitDy=0;fontFamily=DM Mono;fontSize=12;entryPerimeter=0;" parent="1" source="zNYn_2MFzlAma4jKyTyU-11" target="sTmvytfwbgOBLTd5Th8V-103" edge="1">
          <mxGeometry width="50" height="50" relative="1" as="geometry">
            <mxPoint x="480" y="220" as="sourcePoint" />
            <mxPoint x="625" y="428" as="targetPoint" />
          </mxGeometry>
        </mxCell>
        <mxCell id="sTmvytfwbgOBLTd5Th8V-3" value="" style="shape=table;startSize=0;container=1;collapsible=0;childLayout=tableLayout;fontSize=12;fontFamily=DM Mono;" parent="1" vertex="1">
          <mxGeometry x="610" y="200" width="180" height="160" as="geometry" />
        </mxCell>
        <mxCell id="sTmvytfwbgOBLTd5Th8V-4" value="" style="shape=tableRow;horizontal=0;startSize=0;swimlaneHead=0;swimlaneBody=0;strokeColor=inherit;top=0;left=0;bottom=0;right=0;collapsible=0;dropTarget=0;fillColor=none;points=[[0,0.5],[1,0.5]];portConstraint=eastwest;fontSize=12;fontFamily=DM Mono;" parent="sTmvytfwbgOBLTd5Th8V-3" vertex="1">
          <mxGeometry width="180" height="40" as="geometry" />
        </mxCell>
        <mxCell id="sTmvytfwbgOBLTd5Th8V-32" value="String: campo1" style="shape=partialRectangle;html=1;whiteSpace=wrap;connectable=0;strokeColor=inherit;overflow=hidden;fillColor=none;top=0;left=0;bottom=0;right=0;pointerEvents=1;fontSize=12;fontFamily=DM Mono;rowspan=4;colspan=1;" parent="sTmvytfwbgOBLTd5Th8V-4" vertex="1">
          <mxGeometry width="60" height="160" as="geometry">
            <mxRectangle width="60" height="40" as="alternateBounds" />
          </mxGeometry>
        </mxCell>
        <mxCell id="sTmvytfwbgOBLTd5Th8V-5" value="KEY" style="shape=partialRectangle;html=1;whiteSpace=wrap;connectable=0;strokeColor=inherit;overflow=hidden;fillColor=none;top=0;left=0;bottom=0;right=0;pointerEvents=1;fontSize=12;fontFamily=DM Mono;" parent="sTmvytfwbgOBLTd5Th8V-4" vertex="1">
          <mxGeometry x="60" width="60" height="40" as="geometry">
            <mxRectangle width="60" height="40" as="alternateBounds" />
          </mxGeometry>
        </mxCell>
        <mxCell id="sTmvytfwbgOBLTd5Th8V-6" value="VALUE" style="shape=partialRectangle;html=1;whiteSpace=wrap;connectable=0;strokeColor=inherit;overflow=hidden;fillColor=none;top=0;left=0;bottom=0;right=0;pointerEvents=1;fontSize=12;fontFamily=DM Mono;" parent="sTmvytfwbgOBLTd5Th8V-4" vertex="1">
          <mxGeometry x="120" width="60" height="40" as="geometry">
            <mxRectangle width="60" height="40" as="alternateBounds" />
          </mxGeometry>
        </mxCell>
        <mxCell id="sTmvytfwbgOBLTd5Th8V-7" value="" style="shape=tableRow;horizontal=0;startSize=0;swimlaneHead=0;swimlaneBody=0;strokeColor=inherit;top=0;left=0;bottom=0;right=0;collapsible=0;dropTarget=0;fillColor=none;points=[[0,0.5],[1,0.5]];portConstraint=eastwest;fontSize=12;fontFamily=DM Mono;" parent="sTmvytfwbgOBLTd5Th8V-3" vertex="1">
          <mxGeometry y="40" width="180" height="40" as="geometry" />
        </mxCell>
        <mxCell id="sTmvytfwbgOBLTd5Th8V-33" style="shape=partialRectangle;html=1;whiteSpace=wrap;connectable=0;strokeColor=inherit;overflow=hidden;fillColor=none;top=0;left=0;bottom=0;right=0;pointerEvents=1;fontSize=12;fontFamily=DM Mono;" parent="sTmvytfwbgOBLTd5Th8V-7" vertex="1" visible="0">
          <mxGeometry width="60" height="40" as="geometry">
            <mxRectangle width="60" height="40" as="alternateBounds" />
          </mxGeometry>
        </mxCell>
        <mxCell id="sTmvytfwbgOBLTd5Th8V-8" value="String: campo1" style="shape=partialRectangle;html=1;whiteSpace=wrap;connectable=0;strokeColor=inherit;overflow=hidden;fillColor=none;top=0;left=0;bottom=0;right=0;pointerEvents=1;fontSize=12;fontFamily=DM Mono;" parent="sTmvytfwbgOBLTd5Th8V-7" vertex="1">
          <mxGeometry x="60" width="60" height="40" as="geometry">
            <mxRectangle width="60" height="40" as="alternateBounds" />
          </mxGeometry>
        </mxCell>
        <mxCell id="sTmvytfwbgOBLTd5Th8V-9" value="&amp;lt;?&amp;gt;: valor1" style="shape=partialRectangle;html=1;whiteSpace=wrap;connectable=0;strokeColor=inherit;overflow=hidden;fillColor=none;top=0;left=0;bottom=0;right=0;pointerEvents=1;fontSize=12;fontFamily=DM Mono;" parent="sTmvytfwbgOBLTd5Th8V-7" vertex="1">
          <mxGeometry x="120" width="60" height="40" as="geometry">
            <mxRectangle width="60" height="40" as="alternateBounds" />
          </mxGeometry>
        </mxCell>
        <mxCell id="sTmvytfwbgOBLTd5Th8V-10" value="" style="shape=tableRow;horizontal=0;startSize=0;swimlaneHead=0;swimlaneBody=0;strokeColor=inherit;top=0;left=0;bottom=0;right=0;collapsible=0;dropTarget=0;fillColor=none;points=[[0,0.5],[1,0.5]];portConstraint=eastwest;fontSize=12;fontFamily=DM Mono;" parent="sTmvytfwbgOBLTd5Th8V-3" vertex="1">
          <mxGeometry y="80" width="180" height="40" as="geometry" />
        </mxCell>
        <mxCell id="sTmvytfwbgOBLTd5Th8V-34" style="shape=partialRectangle;html=1;whiteSpace=wrap;connectable=0;strokeColor=inherit;overflow=hidden;fillColor=none;top=0;left=0;bottom=0;right=0;pointerEvents=1;fontSize=12;fontFamily=DM Mono;" parent="sTmvytfwbgOBLTd5Th8V-10" vertex="1" visible="0">
          <mxGeometry width="60" height="40" as="geometry">
            <mxRectangle width="60" height="40" as="alternateBounds" />
          </mxGeometry>
        </mxCell>
        <mxCell id="sTmvytfwbgOBLTd5Th8V-11" value="String: campo2" style="shape=partialRectangle;html=1;whiteSpace=wrap;connectable=0;strokeColor=inherit;overflow=hidden;fillColor=none;top=0;left=0;bottom=0;right=0;pointerEvents=1;fontSize=12;fontFamily=DM Mono;" parent="sTmvytfwbgOBLTd5Th8V-10" vertex="1">
          <mxGeometry x="60" width="60" height="40" as="geometry">
            <mxRectangle width="60" height="40" as="alternateBounds" />
          </mxGeometry>
        </mxCell>
        <mxCell id="sTmvytfwbgOBLTd5Th8V-12" value="&amp;lt;?&amp;gt;: valor2" style="shape=partialRectangle;html=1;whiteSpace=wrap;connectable=0;strokeColor=inherit;overflow=hidden;fillColor=none;top=0;left=0;bottom=0;right=0;pointerEvents=1;fontSize=12;fontFamily=DM Mono;" parent="sTmvytfwbgOBLTd5Th8V-10" vertex="1">
          <mxGeometry x="120" width="60" height="40" as="geometry">
            <mxRectangle width="60" height="40" as="alternateBounds" />
          </mxGeometry>
        </mxCell>
        <mxCell id="sTmvytfwbgOBLTd5Th8V-13" style="shape=tableRow;horizontal=0;startSize=0;swimlaneHead=0;swimlaneBody=0;strokeColor=inherit;top=0;left=0;bottom=0;right=0;collapsible=0;dropTarget=0;fillColor=none;points=[[0,0.5],[1,0.5]];portConstraint=eastwest;fontSize=12;fontFamily=DM Mono;" parent="sTmvytfwbgOBLTd5Th8V-3" vertex="1">
          <mxGeometry y="120" width="180" height="40" as="geometry" />
        </mxCell>
        <mxCell id="sTmvytfwbgOBLTd5Th8V-35" style="shape=partialRectangle;html=1;whiteSpace=wrap;connectable=0;strokeColor=inherit;overflow=hidden;fillColor=none;top=0;left=0;bottom=0;right=0;pointerEvents=1;fontSize=12;fontFamily=DM Mono;" parent="sTmvytfwbgOBLTd5Th8V-13" vertex="1" visible="0">
          <mxGeometry width="60" height="40" as="geometry">
            <mxRectangle width="60" height="40" as="alternateBounds" />
          </mxGeometry>
        </mxCell>
        <mxCell id="sTmvytfwbgOBLTd5Th8V-14" value="..." style="shape=partialRectangle;html=1;whiteSpace=wrap;connectable=0;strokeColor=inherit;overflow=hidden;fillColor=none;top=0;left=0;bottom=0;right=0;pointerEvents=1;fontSize=12;fontFamily=DM Mono;rowspan=1;colspan=2;" parent="sTmvytfwbgOBLTd5Th8V-13" vertex="1">
          <mxGeometry x="60" width="120" height="40" as="geometry">
            <mxRectangle width="60" height="40" as="alternateBounds" />
          </mxGeometry>
        </mxCell>
        <mxCell id="sTmvytfwbgOBLTd5Th8V-15" value="..." style="shape=partialRectangle;html=1;whiteSpace=wrap;connectable=0;strokeColor=inherit;overflow=hidden;fillColor=none;top=0;left=0;bottom=0;right=0;pointerEvents=1;fontSize=12;fontFamily=DM Mono;" parent="sTmvytfwbgOBLTd5Th8V-13" vertex="1" visible="0">
          <mxGeometry x="120" width="60" height="40" as="geometry">
            <mxRectangle width="60" height="40" as="alternateBounds" />
          </mxGeometry>
        </mxCell>
        <mxCell id="sTmvytfwbgOBLTd5Th8V-36" value="" style="shape=table;startSize=0;container=1;collapsible=0;childLayout=tableLayout;fontSize=12;fontFamily=DM Mono;" parent="1" vertex="1">
          <mxGeometry x="610" y="360" width="180" height="160" as="geometry" />
        </mxCell>
        <mxCell id="sTmvytfwbgOBLTd5Th8V-37" value="" style="shape=tableRow;horizontal=0;startSize=0;swimlaneHead=0;swimlaneBody=0;strokeColor=inherit;top=0;left=0;bottom=0;right=0;collapsible=0;dropTarget=0;fillColor=none;points=[[0,0.5],[1,0.5]];portConstraint=eastwest;fontSize=12;fontFamily=DM Mono;" parent="sTmvytfwbgOBLTd5Th8V-36" vertex="1">
          <mxGeometry width="180" height="40" as="geometry" />
        </mxCell>
        <mxCell id="sTmvytfwbgOBLTd5Th8V-38" value="String: campo2" style="shape=partialRectangle;html=1;whiteSpace=wrap;connectable=0;strokeColor=inherit;overflow=hidden;fillColor=none;top=0;left=0;bottom=0;right=0;pointerEvents=1;fontSize=12;fontFamily=DM Mono;rowspan=4;colspan=1;" parent="sTmvytfwbgOBLTd5Th8V-37" vertex="1">
          <mxGeometry width="60" height="160" as="geometry">
            <mxRectangle width="60" height="40" as="alternateBounds" />
          </mxGeometry>
        </mxCell>
        <mxCell id="sTmvytfwbgOBLTd5Th8V-39" value="KEY" style="shape=partialRectangle;html=1;whiteSpace=wrap;connectable=0;strokeColor=inherit;overflow=hidden;fillColor=none;top=0;left=0;bottom=0;right=0;pointerEvents=1;fontSize=12;fontFamily=DM Mono;" parent="sTmvytfwbgOBLTd5Th8V-37" vertex="1">
          <mxGeometry x="60" width="60" height="40" as="geometry">
            <mxRectangle width="60" height="40" as="alternateBounds" />
          </mxGeometry>
        </mxCell>
        <mxCell id="sTmvytfwbgOBLTd5Th8V-40" value="VALUE" style="shape=partialRectangle;html=1;whiteSpace=wrap;connectable=0;strokeColor=inherit;overflow=hidden;fillColor=none;top=0;left=0;bottom=0;right=0;pointerEvents=1;fontSize=12;fontFamily=DM Mono;" parent="sTmvytfwbgOBLTd5Th8V-37" vertex="1">
          <mxGeometry x="120" width="60" height="40" as="geometry">
            <mxRectangle width="60" height="40" as="alternateBounds" />
          </mxGeometry>
        </mxCell>
        <mxCell id="sTmvytfwbgOBLTd5Th8V-41" value="" style="shape=tableRow;horizontal=0;startSize=0;swimlaneHead=0;swimlaneBody=0;strokeColor=inherit;top=0;left=0;bottom=0;right=0;collapsible=0;dropTarget=0;fillColor=none;points=[[0,0.5],[1,0.5]];portConstraint=eastwest;fontSize=12;fontFamily=DM Mono;" parent="sTmvytfwbgOBLTd5Th8V-36" vertex="1">
          <mxGeometry y="40" width="180" height="40" as="geometry" />
        </mxCell>
        <mxCell id="sTmvytfwbgOBLTd5Th8V-42" style="shape=partialRectangle;html=1;whiteSpace=wrap;connectable=0;strokeColor=inherit;overflow=hidden;fillColor=none;top=0;left=0;bottom=0;right=0;pointerEvents=1;fontSize=12;fontFamily=DM Mono;" parent="sTmvytfwbgOBLTd5Th8V-41" vertex="1" visible="0">
          <mxGeometry width="60" height="40" as="geometry">
            <mxRectangle width="60" height="40" as="alternateBounds" />
          </mxGeometry>
        </mxCell>
        <mxCell id="sTmvytfwbgOBLTd5Th8V-43" value="String: campo1" style="shape=partialRectangle;html=1;whiteSpace=wrap;connectable=0;strokeColor=inherit;overflow=hidden;fillColor=none;top=0;left=0;bottom=0;right=0;pointerEvents=1;fontSize=12;fontFamily=DM Mono;" parent="sTmvytfwbgOBLTd5Th8V-41" vertex="1">
          <mxGeometry x="60" width="60" height="40" as="geometry">
            <mxRectangle width="60" height="40" as="alternateBounds" />
          </mxGeometry>
        </mxCell>
        <mxCell id="sTmvytfwbgOBLTd5Th8V-44" value="&amp;lt;?&amp;gt;: valor1" style="shape=partialRectangle;html=1;whiteSpace=wrap;connectable=0;strokeColor=inherit;overflow=hidden;fillColor=none;top=0;left=0;bottom=0;right=0;pointerEvents=1;fontSize=12;fontFamily=DM Mono;" parent="sTmvytfwbgOBLTd5Th8V-41" vertex="1">
          <mxGeometry x="120" width="60" height="40" as="geometry">
            <mxRectangle width="60" height="40" as="alternateBounds" />
          </mxGeometry>
        </mxCell>
        <mxCell id="sTmvytfwbgOBLTd5Th8V-45" value="" style="shape=tableRow;horizontal=0;startSize=0;swimlaneHead=0;swimlaneBody=0;strokeColor=inherit;top=0;left=0;bottom=0;right=0;collapsible=0;dropTarget=0;fillColor=none;points=[[0,0.5],[1,0.5]];portConstraint=eastwest;fontSize=12;fontFamily=DM Mono;" parent="sTmvytfwbgOBLTd5Th8V-36" vertex="1">
          <mxGeometry y="80" width="180" height="40" as="geometry" />
        </mxCell>
        <mxCell id="sTmvytfwbgOBLTd5Th8V-46" style="shape=partialRectangle;html=1;whiteSpace=wrap;connectable=0;strokeColor=inherit;overflow=hidden;fillColor=none;top=0;left=0;bottom=0;right=0;pointerEvents=1;fontSize=12;fontFamily=DM Mono;" parent="sTmvytfwbgOBLTd5Th8V-45" vertex="1" visible="0">
          <mxGeometry width="60" height="40" as="geometry">
            <mxRectangle width="60" height="40" as="alternateBounds" />
          </mxGeometry>
        </mxCell>
        <mxCell id="sTmvytfwbgOBLTd5Th8V-47" value="String: campo2" style="shape=partialRectangle;html=1;whiteSpace=wrap;connectable=0;strokeColor=inherit;overflow=hidden;fillColor=none;top=0;left=0;bottom=0;right=0;pointerEvents=1;fontSize=12;fontFamily=DM Mono;" parent="sTmvytfwbgOBLTd5Th8V-45" vertex="1">
          <mxGeometry x="60" width="60" height="40" as="geometry">
            <mxRectangle width="60" height="40" as="alternateBounds" />
          </mxGeometry>
        </mxCell>
        <mxCell id="sTmvytfwbgOBLTd5Th8V-48" value="&amp;lt;?&amp;gt;: valor2" style="shape=partialRectangle;html=1;whiteSpace=wrap;connectable=0;strokeColor=inherit;overflow=hidden;fillColor=none;top=0;left=0;bottom=0;right=0;pointerEvents=1;fontSize=12;fontFamily=DM Mono;" parent="sTmvytfwbgOBLTd5Th8V-45" vertex="1">
          <mxGeometry x="120" width="60" height="40" as="geometry">
            <mxRectangle width="60" height="40" as="alternateBounds" />
          </mxGeometry>
        </mxCell>
        <mxCell id="sTmvytfwbgOBLTd5Th8V-49" style="shape=tableRow;horizontal=0;startSize=0;swimlaneHead=0;swimlaneBody=0;strokeColor=inherit;top=0;left=0;bottom=0;right=0;collapsible=0;dropTarget=0;fillColor=none;points=[[0,0.5],[1,0.5]];portConstraint=eastwest;fontSize=12;fontFamily=DM Mono;" parent="sTmvytfwbgOBLTd5Th8V-36" vertex="1">
          <mxGeometry y="120" width="180" height="40" as="geometry" />
        </mxCell>
        <mxCell id="sTmvytfwbgOBLTd5Th8V-50" style="shape=partialRectangle;html=1;whiteSpace=wrap;connectable=0;strokeColor=inherit;overflow=hidden;fillColor=none;top=0;left=0;bottom=0;right=0;pointerEvents=1;fontSize=12;fontFamily=DM Mono;" parent="sTmvytfwbgOBLTd5Th8V-49" vertex="1" visible="0">
          <mxGeometry width="60" height="40" as="geometry">
            <mxRectangle width="60" height="40" as="alternateBounds" />
          </mxGeometry>
        </mxCell>
        <mxCell id="sTmvytfwbgOBLTd5Th8V-51" value="..." style="shape=partialRectangle;html=1;whiteSpace=wrap;connectable=0;strokeColor=inherit;overflow=hidden;fillColor=none;top=0;left=0;bottom=0;right=0;pointerEvents=1;fontSize=12;fontFamily=DM Mono;rowspan=1;colspan=2;" parent="sTmvytfwbgOBLTd5Th8V-49" vertex="1">
          <mxGeometry x="60" width="120" height="40" as="geometry">
            <mxRectangle width="60" height="40" as="alternateBounds" />
          </mxGeometry>
        </mxCell>
        <mxCell id="sTmvytfwbgOBLTd5Th8V-52" value="..." style="shape=partialRectangle;html=1;whiteSpace=wrap;connectable=0;strokeColor=inherit;overflow=hidden;fillColor=none;top=0;left=0;bottom=0;right=0;pointerEvents=1;fontSize=12;fontFamily=DM Mono;" parent="sTmvytfwbgOBLTd5Th8V-49" vertex="1" visible="0">
          <mxGeometry x="120" width="60" height="40" as="geometry">
            <mxRectangle width="60" height="40" as="alternateBounds" />
          </mxGeometry>
        </mxCell>
        <mxCell id="sTmvytfwbgOBLTd5Th8V-53" value="" style="childLayout=tableLayout;recursiveResize=0;shadow=0;fillColor=none;fontFamily=DM Mono;fontSize=12;" parent="1" vertex="1">
          <mxGeometry x="120" y="71" width="180" height="418" as="geometry" />
        </mxCell>
        <mxCell id="sTmvytfwbgOBLTd5Th8V-54" style="shape=tableRow;horizontal=0;startSize=0;swimlaneHead=0;swimlaneBody=0;top=0;left=0;bottom=0;right=0;dropTarget=0;collapsible=0;recursiveResize=0;expand=0;fontStyle=0;fillColor=none;strokeColor=inherit;fontFamily=DM Mono;fontSize=12;" parent="sTmvytfwbgOBLTd5Th8V-53" vertex="1">
          <mxGeometry width="180" height="42" as="geometry" />
        </mxCell>
        <mxCell id="sTmvytfwbgOBLTd5Th8V-55" value="KEY" style="connectable=0;recursiveResize=0;strokeColor=inherit;fillColor=none;align=center;whiteSpace=wrap;html=1;fontFamily=DM Mono;fontSize=12;" parent="sTmvytfwbgOBLTd5Th8V-54" vertex="1">
          <mxGeometry width="60" height="42" as="geometry">
            <mxRectangle width="60" height="42" as="alternateBounds" />
          </mxGeometry>
        </mxCell>
        <mxCell id="sTmvytfwbgOBLTd5Th8V-56" value="VALUE" style="connectable=0;recursiveResize=0;strokeColor=inherit;fillColor=none;align=center;whiteSpace=wrap;html=1;rowspan=1;colspan=2;fontFamily=DM Mono;fontSize=12;" parent="sTmvytfwbgOBLTd5Th8V-54" vertex="1">
          <mxGeometry x="60" width="120" height="42" as="geometry">
            <mxRectangle width="60" height="42" as="alternateBounds" />
          </mxGeometry>
        </mxCell>
        <mxCell id="sTmvytfwbgOBLTd5Th8V-57" style="connectable=0;recursiveResize=0;strokeColor=inherit;fillColor=none;align=center;whiteSpace=wrap;html=1;" parent="sTmvytfwbgOBLTd5Th8V-54" vertex="1" visible="0">
          <mxGeometry x="120" width="60" height="42" as="geometry">
            <mxRectangle width="60" height="42" as="alternateBounds" />
          </mxGeometry>
        </mxCell>
        <mxCell id="sTmvytfwbgOBLTd5Th8V-58" style="shape=tableRow;horizontal=0;startSize=0;swimlaneHead=0;swimlaneBody=0;top=0;left=0;bottom=0;right=0;dropTarget=0;collapsible=0;recursiveResize=0;expand=0;fontStyle=0;fillColor=none;strokeColor=inherit;fontFamily=DM Mono;fontSize=12;" parent="sTmvytfwbgOBLTd5Th8V-53" vertex="1">
          <mxGeometry y="42" width="180" height="42" as="geometry" />
        </mxCell>
        <mxCell id="sTmvytfwbgOBLTd5Th8V-59" value="&amp;lt;?&amp;gt;: llave1" style="connectable=0;recursiveResize=0;strokeColor=inherit;fillColor=none;align=center;whiteSpace=wrap;html=1;fontFamily=DM Mono;fontSize=12;rowspan=4;colspan=1;" parent="sTmvytfwbgOBLTd5Th8V-58" vertex="1">
          <mxGeometry width="60" height="167" as="geometry">
            <mxRectangle width="60" height="42" as="alternateBounds" />
          </mxGeometry>
        </mxCell>
        <mxCell id="sTmvytfwbgOBLTd5Th8V-60" value="KEY" style="connectable=0;recursiveResize=0;strokeColor=inherit;fillColor=none;align=center;whiteSpace=wrap;html=1;fontFamily=DM Mono;fontSize=12;" parent="sTmvytfwbgOBLTd5Th8V-58" vertex="1">
          <mxGeometry x="60" width="60" height="42" as="geometry">
            <mxRectangle width="60" height="42" as="alternateBounds" />
          </mxGeometry>
        </mxCell>
        <mxCell id="sTmvytfwbgOBLTd5Th8V-61" value="VALUE" style="connectable=0;recursiveResize=0;strokeColor=inherit;fillColor=none;align=center;whiteSpace=wrap;html=1;fontFamily=DM Mono;fontSize=12;" parent="sTmvytfwbgOBLTd5Th8V-58" vertex="1">
          <mxGeometry x="120" width="60" height="42" as="geometry">
            <mxRectangle width="60" height="42" as="alternateBounds" />
          </mxGeometry>
        </mxCell>
        <mxCell id="sTmvytfwbgOBLTd5Th8V-62" value="" style="shape=tableRow;horizontal=0;startSize=0;swimlaneHead=0;swimlaneBody=0;top=0;left=0;bottom=0;right=0;dropTarget=0;collapsible=0;recursiveResize=0;expand=0;fontStyle=0;fillColor=none;strokeColor=inherit;fontFamily=DM Mono;fontSize=12;" parent="sTmvytfwbgOBLTd5Th8V-53" vertex="1">
          <mxGeometry y="84" width="180" height="42" as="geometry" />
        </mxCell>
        <mxCell id="sTmvytfwbgOBLTd5Th8V-63" value="&amp;lt;?&amp;gt;: llave1" style="connectable=0;recursiveResize=0;strokeColor=inherit;fillColor=none;align=center;whiteSpace=wrap;html=1;fontFamily=DM Mono;fontSize=12;" parent="sTmvytfwbgOBLTd5Th8V-62" vertex="1" visible="0">
          <mxGeometry width="60" height="42" as="geometry">
            <mxRectangle width="60" height="42" as="alternateBounds" />
          </mxGeometry>
        </mxCell>
        <mxCell id="sTmvytfwbgOBLTd5Th8V-64" value="String: campo1" style="connectable=0;recursiveResize=0;strokeColor=inherit;fillColor=none;align=center;whiteSpace=wrap;html=1;fontFamily=DM Mono;fontSize=12;" parent="sTmvytfwbgOBLTd5Th8V-62" vertex="1">
          <mxGeometry x="60" width="60" height="42" as="geometry">
            <mxRectangle width="60" height="42" as="alternateBounds" />
          </mxGeometry>
        </mxCell>
        <mxCell id="sTmvytfwbgOBLTd5Th8V-65" value="&amp;lt;?&amp;gt;: valor1" style="connectable=0;recursiveResize=0;strokeColor=inherit;fillColor=none;align=center;whiteSpace=wrap;html=1;fontFamily=DM Mono;fontSize=12;" parent="sTmvytfwbgOBLTd5Th8V-62" vertex="1">
          <mxGeometry x="120" width="60" height="42" as="geometry">
            <mxRectangle width="60" height="42" as="alternateBounds" />
          </mxGeometry>
        </mxCell>
        <mxCell id="sTmvytfwbgOBLTd5Th8V-66" style="shape=tableRow;horizontal=0;startSize=0;swimlaneHead=0;swimlaneBody=0;top=0;left=0;bottom=0;right=0;dropTarget=0;collapsible=0;recursiveResize=0;expand=0;fontStyle=0;fillColor=none;strokeColor=inherit;fontFamily=DM Mono;fontSize=12;" parent="sTmvytfwbgOBLTd5Th8V-53" vertex="1">
          <mxGeometry y="126" width="180" height="42" as="geometry" />
        </mxCell>
        <mxCell id="sTmvytfwbgOBLTd5Th8V-67" style="connectable=0;recursiveResize=0;strokeColor=inherit;fillColor=none;align=center;whiteSpace=wrap;html=1;" parent="sTmvytfwbgOBLTd5Th8V-66" vertex="1" visible="0">
          <mxGeometry width="60" height="42" as="geometry">
            <mxRectangle width="60" height="42" as="alternateBounds" />
          </mxGeometry>
        </mxCell>
        <mxCell id="sTmvytfwbgOBLTd5Th8V-68" value="String: campo2" style="connectable=0;recursiveResize=0;strokeColor=inherit;fillColor=none;align=center;whiteSpace=wrap;html=1;fontFamily=DM Mono;fontSize=12;" parent="sTmvytfwbgOBLTd5Th8V-66" vertex="1">
          <mxGeometry x="60" width="60" height="42" as="geometry">
            <mxRectangle width="60" height="42" as="alternateBounds" />
          </mxGeometry>
        </mxCell>
        <mxCell id="sTmvytfwbgOBLTd5Th8V-69" value="&amp;lt;?&amp;gt;: valor2" style="connectable=0;recursiveResize=0;strokeColor=inherit;fillColor=none;align=center;whiteSpace=wrap;html=1;fontFamily=DM Mono;fontSize=12;" parent="sTmvytfwbgOBLTd5Th8V-66" vertex="1">
          <mxGeometry x="120" width="60" height="42" as="geometry">
            <mxRectangle width="60" height="42" as="alternateBounds" />
          </mxGeometry>
        </mxCell>
        <mxCell id="sTmvytfwbgOBLTd5Th8V-70" style="shape=tableRow;horizontal=0;startSize=0;swimlaneHead=0;swimlaneBody=0;top=0;left=0;bottom=0;right=0;dropTarget=0;collapsible=0;recursiveResize=0;expand=0;fontStyle=0;fillColor=none;strokeColor=inherit;fontFamily=DM Mono;fontSize=12;" parent="sTmvytfwbgOBLTd5Th8V-53" vertex="1">
          <mxGeometry y="168" width="180" height="41" as="geometry" />
        </mxCell>
        <mxCell id="sTmvytfwbgOBLTd5Th8V-71" value="" style="connectable=0;recursiveResize=0;strokeColor=inherit;fillColor=none;align=center;whiteSpace=wrap;html=1;" parent="sTmvytfwbgOBLTd5Th8V-70" vertex="1" visible="0">
          <mxGeometry width="60" height="41" as="geometry">
            <mxRectangle width="60" height="41" as="alternateBounds" />
          </mxGeometry>
        </mxCell>
        <mxCell id="sTmvytfwbgOBLTd5Th8V-72" value="..." style="connectable=0;recursiveResize=0;strokeColor=inherit;fillColor=none;align=center;whiteSpace=wrap;html=1;fontFamily=DM Mono;fontSize=12;rowspan=1;colspan=2;" parent="sTmvytfwbgOBLTd5Th8V-70" vertex="1">
          <mxGeometry x="60" width="120" height="41" as="geometry">
            <mxRectangle width="60" height="41" as="alternateBounds" />
          </mxGeometry>
        </mxCell>
        <mxCell id="sTmvytfwbgOBLTd5Th8V-73" value="..." style="connectable=0;recursiveResize=0;strokeColor=inherit;fillColor=none;align=center;whiteSpace=wrap;html=1;fontFamily=DM Mono;fontSize=12;" parent="sTmvytfwbgOBLTd5Th8V-70" vertex="1" visible="0">
          <mxGeometry x="120" width="60" height="41" as="geometry">
            <mxRectangle width="60" height="41" as="alternateBounds" />
          </mxGeometry>
        </mxCell>
        <mxCell id="sTmvytfwbgOBLTd5Th8V-74" style="shape=tableRow;horizontal=0;startSize=0;swimlaneHead=0;swimlaneBody=0;top=0;left=0;bottom=0;right=0;dropTarget=0;collapsible=0;recursiveResize=0;expand=0;fontStyle=0;fillColor=none;strokeColor=inherit;fontFamily=DM Mono;fontSize=12;" parent="sTmvytfwbgOBLTd5Th8V-53" vertex="1">
          <mxGeometry y="209" width="180" height="41" as="geometry" />
        </mxCell>
        <mxCell id="sTmvytfwbgOBLTd5Th8V-75" value="&amp;lt;?&amp;gt;: llave2" style="connectable=0;recursiveResize=0;strokeColor=inherit;fillColor=none;align=center;whiteSpace=wrap;html=1;rowspan=4;colspan=1;fontFamily=DM Mono;fontSize=12;" parent="sTmvytfwbgOBLTd5Th8V-74" vertex="1">
          <mxGeometry width="60" height="167" as="geometry">
            <mxRectangle width="60" height="41" as="alternateBounds" />
          </mxGeometry>
        </mxCell>
        <mxCell id="sTmvytfwbgOBLTd5Th8V-76" value="KEY" style="connectable=0;recursiveResize=0;strokeColor=inherit;fillColor=none;align=center;whiteSpace=wrap;html=1;fontFamily=DM Mono;fontSize=12;" parent="sTmvytfwbgOBLTd5Th8V-74" vertex="1">
          <mxGeometry x="60" width="60" height="41" as="geometry">
            <mxRectangle width="60" height="41" as="alternateBounds" />
          </mxGeometry>
        </mxCell>
        <mxCell id="sTmvytfwbgOBLTd5Th8V-77" value="VALUE" style="connectable=0;recursiveResize=0;strokeColor=inherit;fillColor=none;align=center;whiteSpace=wrap;html=1;fontFamily=DM Mono;fontSize=12;" parent="sTmvytfwbgOBLTd5Th8V-74" vertex="1">
          <mxGeometry x="120" width="60" height="41" as="geometry">
            <mxRectangle width="60" height="41" as="alternateBounds" />
          </mxGeometry>
        </mxCell>
        <mxCell id="sTmvytfwbgOBLTd5Th8V-78" style="shape=tableRow;horizontal=0;startSize=0;swimlaneHead=0;swimlaneBody=0;top=0;left=0;bottom=0;right=0;dropTarget=0;collapsible=0;recursiveResize=0;expand=0;fontStyle=0;fillColor=none;strokeColor=inherit;fontFamily=DM Mono;fontSize=12;" parent="sTmvytfwbgOBLTd5Th8V-53" vertex="1">
          <mxGeometry y="250" width="180" height="42" as="geometry" />
        </mxCell>
        <mxCell id="sTmvytfwbgOBLTd5Th8V-79" value="&amp;lt;?&amp;gt;: llave2" style="connectable=0;recursiveResize=0;strokeColor=inherit;fillColor=none;align=center;whiteSpace=wrap;html=1;fontFamily=DM Mono;fontSize=12;" parent="sTmvytfwbgOBLTd5Th8V-78" vertex="1" visible="0">
          <mxGeometry width="60" height="42" as="geometry">
            <mxRectangle width="60" height="42" as="alternateBounds" />
          </mxGeometry>
        </mxCell>
        <mxCell id="sTmvytfwbgOBLTd5Th8V-80" value="String: campo1" style="connectable=0;recursiveResize=0;strokeColor=inherit;fillColor=none;align=center;whiteSpace=wrap;html=1;fontFamily=DM Mono;fontSize=12;" parent="sTmvytfwbgOBLTd5Th8V-78" vertex="1">
          <mxGeometry x="60" width="60" height="42" as="geometry">
            <mxRectangle width="60" height="42" as="alternateBounds" />
          </mxGeometry>
        </mxCell>
        <mxCell id="sTmvytfwbgOBLTd5Th8V-81" value="&amp;lt;?&amp;gt;: valor1" style="connectable=0;recursiveResize=0;strokeColor=inherit;fillColor=none;align=center;whiteSpace=wrap;html=1;fontFamily=DM Mono;fontSize=12;" parent="sTmvytfwbgOBLTd5Th8V-78" vertex="1">
          <mxGeometry x="120" width="60" height="42" as="geometry">
            <mxRectangle width="60" height="42" as="alternateBounds" />
          </mxGeometry>
        </mxCell>
        <mxCell id="sTmvytfwbgOBLTd5Th8V-82" style="shape=tableRow;horizontal=0;startSize=0;swimlaneHead=0;swimlaneBody=0;top=0;left=0;bottom=0;right=0;dropTarget=0;collapsible=0;recursiveResize=0;expand=0;fontStyle=0;fillColor=none;strokeColor=inherit;fontFamily=DM Mono;fontSize=12;" parent="sTmvytfwbgOBLTd5Th8V-53" vertex="1">
          <mxGeometry y="292" width="180" height="42" as="geometry" />
        </mxCell>
        <mxCell id="sTmvytfwbgOBLTd5Th8V-83" style="connectable=0;recursiveResize=0;strokeColor=inherit;fillColor=none;align=center;whiteSpace=wrap;html=1;" parent="sTmvytfwbgOBLTd5Th8V-82" vertex="1" visible="0">
          <mxGeometry width="60" height="42" as="geometry">
            <mxRectangle width="60" height="42" as="alternateBounds" />
          </mxGeometry>
        </mxCell>
        <mxCell id="sTmvytfwbgOBLTd5Th8V-84" value="String: campo2" style="connectable=0;recursiveResize=0;strokeColor=inherit;fillColor=none;align=center;whiteSpace=wrap;html=1;fontFamily=DM Mono;fontSize=12;" parent="sTmvytfwbgOBLTd5Th8V-82" vertex="1">
          <mxGeometry x="60" width="60" height="42" as="geometry">
            <mxRectangle width="60" height="42" as="alternateBounds" />
          </mxGeometry>
        </mxCell>
        <mxCell id="sTmvytfwbgOBLTd5Th8V-85" value="&amp;lt;?&amp;gt;: valor2" style="connectable=0;recursiveResize=0;strokeColor=inherit;fillColor=none;align=center;whiteSpace=wrap;html=1;fontFamily=DM Mono;fontSize=12;" parent="sTmvytfwbgOBLTd5Th8V-82" vertex="1">
          <mxGeometry x="120" width="60" height="42" as="geometry">
            <mxRectangle width="60" height="42" as="alternateBounds" />
          </mxGeometry>
        </mxCell>
        <mxCell id="sTmvytfwbgOBLTd5Th8V-86" style="shape=tableRow;horizontal=0;startSize=0;swimlaneHead=0;swimlaneBody=0;top=0;left=0;bottom=0;right=0;dropTarget=0;collapsible=0;recursiveResize=0;expand=0;fontStyle=0;fillColor=none;strokeColor=inherit;fontFamily=DM Mono;fontSize=12;" parent="sTmvytfwbgOBLTd5Th8V-53" vertex="1">
          <mxGeometry y="334" width="180" height="42" as="geometry" />
        </mxCell>
        <mxCell id="sTmvytfwbgOBLTd5Th8V-87" style="connectable=0;recursiveResize=0;strokeColor=inherit;fillColor=none;align=center;whiteSpace=wrap;html=1;" parent="sTmvytfwbgOBLTd5Th8V-86" vertex="1" visible="0">
          <mxGeometry width="60" height="42" as="geometry">
            <mxRectangle width="60" height="42" as="alternateBounds" />
          </mxGeometry>
        </mxCell>
        <mxCell id="sTmvytfwbgOBLTd5Th8V-88" value="..." style="connectable=0;recursiveResize=0;strokeColor=inherit;fillColor=none;align=center;whiteSpace=wrap;html=1;fontFamily=DM Mono;fontSize=12;rowspan=1;colspan=2;" parent="sTmvytfwbgOBLTd5Th8V-86" vertex="1">
          <mxGeometry x="60" width="120" height="42" as="geometry">
            <mxRectangle width="60" height="42" as="alternateBounds" />
          </mxGeometry>
        </mxCell>
        <mxCell id="sTmvytfwbgOBLTd5Th8V-89" value="..." style="connectable=0;recursiveResize=0;strokeColor=inherit;fillColor=none;align=center;whiteSpace=wrap;html=1;fontFamily=DM Mono;fontSize=12;" parent="sTmvytfwbgOBLTd5Th8V-86" vertex="1" visible="0">
          <mxGeometry x="120" width="60" height="42" as="geometry">
            <mxRectangle width="60" height="42" as="alternateBounds" />
          </mxGeometry>
        </mxCell>
        <mxCell id="sTmvytfwbgOBLTd5Th8V-90" style="shape=tableRow;horizontal=0;startSize=0;swimlaneHead=0;swimlaneBody=0;top=0;left=0;bottom=0;right=0;dropTarget=0;collapsible=0;recursiveResize=0;expand=0;fontStyle=0;fillColor=none;strokeColor=inherit;fontFamily=DM Mono;fontSize=12;" parent="sTmvytfwbgOBLTd5Th8V-53" vertex="1">
          <mxGeometry y="376" width="180" height="42" as="geometry" />
        </mxCell>
        <mxCell id="sTmvytfwbgOBLTd5Th8V-91" value="..." style="connectable=0;recursiveResize=0;strokeColor=inherit;fillColor=none;align=center;whiteSpace=wrap;html=1;rowspan=1;colspan=3;fontFamily=DM Mono;fontSize=12;" parent="sTmvytfwbgOBLTd5Th8V-90" vertex="1">
          <mxGeometry width="180" height="42" as="geometry">
            <mxRectangle width="60" height="42" as="alternateBounds" />
          </mxGeometry>
        </mxCell>
        <mxCell id="sTmvytfwbgOBLTd5Th8V-92" style="connectable=0;recursiveResize=0;strokeColor=inherit;fillColor=none;align=center;whiteSpace=wrap;html=1;" parent="sTmvytfwbgOBLTd5Th8V-90" vertex="1" visible="0">
          <mxGeometry x="60" width="60" height="42" as="geometry">
            <mxRectangle width="60" height="42" as="alternateBounds" />
          </mxGeometry>
        </mxCell>
        <mxCell id="sTmvytfwbgOBLTd5Th8V-93" style="connectable=0;recursiveResize=0;strokeColor=inherit;fillColor=none;align=center;whiteSpace=wrap;html=1;" parent="sTmvytfwbgOBLTd5Th8V-90" vertex="1" visible="0">
          <mxGeometry x="120" width="60" height="42" as="geometry">
            <mxRectangle width="60" height="42" as="alternateBounds" />
          </mxGeometry>
        </mxCell>
        <mxCell id="sTmvytfwbgOBLTd5Th8V-94" value="" style="shape=table;startSize=0;container=1;collapsible=0;childLayout=tableLayout;fontSize=12;fontFamily=DM Mono;" parent="1" vertex="1">
          <mxGeometry x="610" y="40" width="60" height="120" as="geometry" />
        </mxCell>
        <mxCell id="sTmvytfwbgOBLTd5Th8V-95" value="" style="shape=tableRow;horizontal=0;startSize=0;swimlaneHead=0;swimlaneBody=0;strokeColor=inherit;top=0;left=0;bottom=0;right=0;collapsible=0;dropTarget=0;fillColor=none;points=[[0,0.5],[1,0.5]];portConstraint=eastwest;fontSize=12;fontFamily=DM Mono;" parent="sTmvytfwbgOBLTd5Th8V-94" vertex="1">
          <mxGeometry width="60" height="40" as="geometry" />
        </mxCell>
        <mxCell id="sTmvytfwbgOBLTd5Th8V-96" value="KEY" style="shape=partialRectangle;html=1;whiteSpace=wrap;connectable=0;strokeColor=inherit;overflow=hidden;fillColor=none;top=0;left=0;bottom=0;right=0;pointerEvents=1;fontSize=12;fontFamily=DM Mono;" parent="sTmvytfwbgOBLTd5Th8V-95" vertex="1">
          <mxGeometry width="60" height="40" as="geometry">
            <mxRectangle width="60" height="40" as="alternateBounds" />
          </mxGeometry>
        </mxCell>
        <mxCell id="sTmvytfwbgOBLTd5Th8V-99" value="" style="shape=tableRow;horizontal=0;startSize=0;swimlaneHead=0;swimlaneBody=0;strokeColor=inherit;top=0;left=0;bottom=0;right=0;collapsible=0;dropTarget=0;fillColor=none;points=[[0,0.5],[1,0.5]];portConstraint=eastwest;fontSize=12;fontFamily=DM Mono;" parent="sTmvytfwbgOBLTd5Th8V-94" vertex="1">
          <mxGeometry y="40" width="60" height="40" as="geometry" />
        </mxCell>
        <mxCell id="sTmvytfwbgOBLTd5Th8V-100" value="&amp;lt;?&amp;gt;: llave1" style="shape=partialRectangle;html=1;whiteSpace=wrap;connectable=0;strokeColor=inherit;overflow=hidden;fillColor=none;top=0;left=0;bottom=0;right=0;pointerEvents=1;fontSize=12;fontFamily=DM Mono;" parent="sTmvytfwbgOBLTd5Th8V-99" vertex="1">
          <mxGeometry width="60" height="40" as="geometry">
            <mxRectangle width="60" height="40" as="alternateBounds" />
          </mxGeometry>
        </mxCell>
        <mxCell id="sTmvytfwbgOBLTd5Th8V-103" value="" style="shape=tableRow;horizontal=0;startSize=0;swimlaneHead=0;swimlaneBody=0;strokeColor=inherit;top=0;left=0;bottom=0;right=0;collapsible=0;dropTarget=0;fillColor=none;points=[[0,0.5],[1,0.5]];portConstraint=eastwest;fontSize=12;fontFamily=DM Mono;" parent="sTmvytfwbgOBLTd5Th8V-94" vertex="1">
          <mxGeometry y="80" width="60" height="40" as="geometry" />
        </mxCell>
        <mxCell id="sTmvytfwbgOBLTd5Th8V-104" value="&amp;lt;?&amp;gt;: llave2" style="shape=partialRectangle;html=1;whiteSpace=wrap;connectable=0;strokeColor=inherit;overflow=hidden;fillColor=none;top=0;left=0;bottom=0;right=0;pointerEvents=1;fontSize=12;fontFamily=DM Mono;" parent="sTmvytfwbgOBLTd5Th8V-103" vertex="1">
          <mxGeometry width="60" height="40" as="geometry">
            <mxRectangle width="60" height="40" as="alternateBounds" />
          </mxGeometry>
        </mxCell>
        <mxCell id="sTmvytfwbgOBLTd5Th8V-108" value="" style="endArrow=none;html=1;rounded=0;entryX=0;entryY=0;entryDx=0;entryDy=0;entryPerimeter=0;exitX=1;exitY=0.5;exitDx=0;exitDy=0;" parent="1" source="zNYn_2MFzlAma4jKyTyU-11" target="sTmvytfwbgOBLTd5Th8V-4" edge="1">
          <mxGeometry width="50" height="50" relative="1" as="geometry">
            <mxPoint x="440" y="400" as="sourcePoint" />
            <mxPoint x="490" y="350" as="targetPoint" />
          </mxGeometry>
        </mxCell>
        <mxCell id="sTmvytfwbgOBLTd5Th8V-109" value="" style="endArrow=none;html=1;rounded=0;entryX=0;entryY=1;entryDx=0;entryDy=0;entryPerimeter=0;exitX=1;exitY=0.5;exitDx=0;exitDy=0;" parent="1" source="zNYn_2MFzlAma4jKyTyU-11" target="sTmvytfwbgOBLTd5Th8V-49" edge="1">
          <mxGeometry width="50" height="50" relative="1" as="geometry">
            <mxPoint x="410" y="480" as="sourcePoint" />
            <mxPoint x="460" y="430" as="targetPoint" />
          </mxGeometry>
        </mxCell>
      </root>
    </mxGraphModel>
  </diagram>
</mxfile>
